<svg xmlns="http://www.w3.org/2000/svg" viewBox="0 0 228.2 228.45">
  <rect width="228.2" height="228.45" fill="#050505" rx="48" />
  <path
    fill="#ffffff"
    d="M228.06,114.73c0,11.83-.42,23.68.08,35.49,1.63,38.98-28.94,76.77-73.74,77.96-25.31.67-50.65-.13-75.97.18-20.06.25-37.75-5.71-52.72-18.99C9.31,194.81.48,176.39.2,154.41c-.34-26.99-.19-53.98-.04-80.97C.35,36.49,31.91,2.27,68.75.86c30.26-1.16,60.65-1.17,90.9.1,37.32,1.57,68.66,36.37,68.41,73.78-.09,13.33-.01,26.66-.01,39.99,0,0,.01,0,.02,0ZM12.61,76.29c0,.34.02.67.03,1.01.96.22,1.92.45,2.89.67,32.44,7.48,54.91,31.11,59.58,64.09,1.53,10.8.71,21.94.79,32.92.1,13.58.02,27.17.02,40.75,1.36-1.29,1.84-2.65,2.11-4.05,6.01-30.55,34.39-56.83,65.41-58.64,22.25-1.3,44.63-.49,66.95-.62,1.53,0,3.06,0,4.59,0-.37-1.15-.74-1.46-1.16-1.54-35.67-7.29-60.49-36.23-61.47-72.51-.54-19.98-.14-39.99-.16-59.98,0-1.64,0-3.28,0-4.93-1.34,1.29-1.72,2.54-2.02,3.81-7.62,33.37-36.53,57.44-70.81,58.58-14.48.48-28.98.34-43.47.44-7.76.05-15.53,0-23.29,0Z"
  />
  <path
    fill="#050505"
    d="M12.61,76.29c7.76,0,15.53.04,23.29,0,14.49-.1,28.99.04,43.47-.44,34.28-1.14,63.19-25.21,70.81-58.58.29-1.27.68-2.52,2.02-3.81,0,1.64,0,3.28,0,4.93.02,20-.38,40,.16,59.98.98,36.28,25.8,65.22,61.47,72.51.41.08.78.39,1.16,1.54-1.53,0-3.06,0-4.59,0-22.32.13-44.7-.68-66.95.62-31.02,1.82-59.4,28.09-65.41,58.64-.28,1.4-.75,2.77-2.11,4.05,0-13.58.08-27.17-.02-40.75-.08-10.99.74-22.13-.79-32.92-4.67-32.98-27.13-56.61-59.58-64.09-.96-.22-1.93-.45-2.89-.67,0-.34-.02-.67-.03-1.01Z"
  />
</svg>
